<?xml version="1.0" encoding="iso-8859-1"?>
<!-- Generator: Adobe Illustrator 19.0.0, SVG Export Plug-In . SVG Version: 6.00 Build 0)  -->
<svg version="1.1" id="Layer_1" xmlns="http://www.w3.org/2000/svg" xmlns:xlink="http://www.w3.org/1999/xlink" x="0px" y="0px"
	 viewBox="0 0 410 410" style="enable-background:new 0 0 410 410;" xml:space="preserve">
<g>
	<path style="fill:#AD2E08;" d="M345,65h-80h-80H65C29.159,65,0,94.158,0,130c-0.001,17.362,6.761,33.686,19.037,45.963
		c8.66,8.659,19.333,14.574,30.963,17.308V330c0,8.284,6.716,15,15,15h120h79.999H345c8.284,0,15-6.716,15-15V193.252
		c28.635-6.789,50-32.572,50-63.252C410,94.158,380.841,65,345,65z"/>
	<g>
		<path style="fill:#F4E07D;" d="M265,95h-80H65c-19.299,0-35,15.701-35,35c0,9.35,3.64,18.139,10.25,24.75
			c6.611,6.609,15.4,10.25,24.749,10.249c3.978-0.001,7.794,1.58,10.607,4.394C78.42,172.205,80,176.02,80,179.999V315h105h64.999
			V179.999c0-8.284,6.716-15,15-15c19.299,0,35-15.7,35.001-34.999C300,110.701,284.299,95,265,95z M185.602,280.603
			c-0.191,0.192-0.4,0.365-0.602,0.546c-2.724,2.444-6.32,3.854-9.998,3.854c-3.95,0-7.819-1.609-10.609-4.4
			c-2.79-2.78-4.391-6.649-4.391-10.6c0-3.959,1.6-7.819,4.391-10.609c2.79-2.79,6.659-4.391,10.609-4.391
			c3.679,0,7.267,1.402,9.998,3.846c0.202,0.181,0.411,0.354,0.602,0.545c2.8,2.79,4.4,6.66,4.4,10.609
			C190.002,273.953,188.402,277.813,185.602,280.603z M215.602,230.602c-2.79,2.8-6.66,4.4-10.6,4.4c-3.95,0-7.819-1.6-10.609-4.4
			c-2.79-2.79-4.391-6.649-4.391-10.6c0-3.949,1.6-7.819,4.391-10.609c2.79-2.79,6.659-4.391,10.609-4.391
			c3.94,0,7.81,1.6,10.6,4.391c2.8,2.79,4.4,6.66,4.4,10.609C220.002,223.942,218.402,227.813,215.602,230.602z"/>
	</g>
	<path style="fill:#AD2E08;" d="M205.002,205.002c-3.95,0-7.819,1.6-10.609,4.391c-2.79,2.79-4.391,6.66-4.391,10.609
		c0,3.951,1.6,7.811,4.391,10.6c2.79,2.8,6.659,4.4,10.609,4.4c3.94,0,7.81-1.6,10.6-4.4c2.8-2.79,4.4-6.66,4.4-10.6
		c0-3.949-1.6-7.819-4.4-10.609C212.812,206.602,208.942,205.002,205.002,205.002z"/>
	<path style="fill:#AD2E08;" d="M185,258.848c-2.731-2.443-6.319-3.846-9.998-3.846c-3.95,0-7.819,1.601-10.609,4.391
		s-4.391,6.65-4.391,10.609c0,3.951,1.6,7.82,4.391,10.6c2.79,2.79,6.659,4.4,10.609,4.4c3.678,0,7.274-1.409,9.998-3.854
		c0.202-0.181,0.411-0.354,0.602-0.546c2.8-2.79,4.4-6.649,4.4-10.6c0-3.949-1.6-7.819-4.4-10.609
		C185.411,259.201,185.202,259.028,185,258.848z"/>
	<path style="fill:#F1D860;" d="M64.999,165c3.978,0,7.794,1.58,10.607,4.394C78.42,172.206,80,176.021,80,180v135h85v-33.848
		c-0.203-0.182-0.413-0.354-0.606-0.548c-2.79-2.79-4.391-6.66-4.391-10.61c0-3.939,1.601-7.81,4.391-10.6
		c0.193-0.193,0.403-0.367,0.606-0.549V95H65c-19.299,0-35,15.701-35,35c0,9.35,3.64,18.139,10.251,24.75
		C46.861,161.36,55.65,165,64.999,165z"/>
</g>
<g>
</g>
<g>
</g>
<g>
</g>
<g>
</g>
<g>
</g>
<g>
</g>
<g>
</g>
<g>
</g>
<g>
</g>
<g>
</g>
<g>
</g>
<g>
</g>
<g>
</g>
<g>
</g>
<g>
</g>
</svg>
