<?xml version="1.0" encoding="iso-8859-1"?>
<!-- Generator: Adobe Illustrator 19.0.0, SVG Export Plug-In . SVG Version: 6.00 Build 0)  -->
<svg version="1.1" id="Layer_1" xmlns="http://www.w3.org/2000/svg" xmlns:xlink="http://www.w3.org/1999/xlink" x="0px" y="0px"
	 viewBox="0 0 512 512" style="enable-background:new 0 0 512 512;" xml:space="preserve">
<rect x="71.876" y="352.064" style="fill:#9B4573;" width="160.107" height="24.017"/>
<g>
	<rect x="71.876" y="328.045" style="fill:#C8546F;" width="160.107" height="24.016"/>
	<rect x="71.876" y="376.082" style="fill:#C8546F;" width="160.107" height="24.016"/>
</g>
<rect x="71.876" y="400.1" style="fill:#FEB860;" width="160.107" height="32.022"/>
<polygon style="fill:#FEC986;" points="231.983,328.049 175.946,328.049 159.934,352.065 143.924,328.049 71.876,328.049 
	71.876,304.033 231.983,304.033 "/>
<path style="fill:#FEB860;" d="M231.983,296.027c0-44.213-35.841-80.054-80.054-80.054c-44.212,0-80.054,35.841-80.054,80.054v8.005
	h160.109V296.027z"/>
<rect x="272.01" y="135.922" style="fill:#9B4573;" width="96.062" height="24.017"/>
<rect x="256.002" y="159.94" style="fill:#FEC986;" width="128.09" height="272.188"/>
<rect x="344.064" y="159.94" style="fill:#FEB860;" width="40.027" height="264.178"/>
<path style="fill:#C8546F;" d="M448.13,432.119H320.043l-16.011-104.071v-32.02h32.021l11.911,17.865
	c2.562,3.843,6.874,6.151,11.492,6.151h49.059c4.744,0,9.174-2.372,11.806-6.318l11.798-17.698h32.021v32.02L448.13,432.119z"/>
<rect x="7.832" y="432.117" style="fill:#9B4573;" width="496.339" height="24.016"/>
<g>
	<rect x="71.876" y="368.25" style="fill:#1D1D1B;" width="160.107" height="15.664"/>
	<rect x="71.876" y="344.232" style="fill:#1D1D1B;" width="64.045" height="15.664"/>
	<polygon style="fill:#1D1D1B;" points="159.934,366.184 139.733,335.881 71.876,335.881 71.876,320.217 148.115,320.217 
		159.934,337.946 171.754,320.217 231.983,320.217 231.983,335.881 180.137,335.881 	"/>
	<rect x="183.947" y="344.232" style="fill:#1D1D1B;" width="48.032" height="15.664"/>
	<path style="fill:#1D1D1B;" d="M239.815,311.865H64.044v-15.837c0-48.461,39.425-87.886,87.886-87.886s87.886,39.425,87.886,87.886
		v15.837H239.815z M79.708,296.201h144.444v-0.173c0-39.824-32.398-72.222-72.222-72.222s-72.222,32.398-72.222,72.222v0.173H79.708
		z"/>
	<rect x="304.205" y="239.993" style="fill:#1D1D1B;" width="15.664" height="40.027"/>
	<rect x="328.223" y="223.974" style="fill:#1D1D1B;" width="15.664" height="56.037"/>
	<rect x="352.241" y="215.975" style="fill:#1D1D1B;" width="15.664" height="88.063"/>
	<rect x="376.259" y="215.975" style="fill:#1D1D1B;" width="15.664" height="88.063"/>
	<rect x="400.267" y="215.975" style="fill:#1D1D1B;" width="15.664" height="88.063"/>
	<rect x="424.285" y="223.974" style="fill:#1D1D1B;" width="15.664" height="56.037"/>
	<rect x="448.303" y="239.993" style="fill:#1D1D1B;" width="15.664" height="40.027"/>
</g>
<rect x="336.055" y="400.267" style="fill:#FFFFFF;" width="96.062" height="15.664"/>
<g>
	<rect x="376.259" y="175.948" style="fill:#1D1D1B;" width="15.664" height="24.016"/>
	<path style="fill:#1D1D1B;" d="M457.159,424.287L471.972,320.6v-32.405h-47.685v7.832c0,8.924-7.26,16.184-16.184,16.184h-48.032
		c-8.924,0-16.184-7.26-16.184-16.184v-7.832h-47.686V320.6l14.813,103.687h-47.181V175.946h-15.664v248.341h-8.353v-32.022H64.044
		v32.022H0v39.68h512v-39.68H457.159z M311.865,319.487v-15.627h17.333c3.499,13.787,16.014,24.016,30.874,24.016h48.032
		c14.86,0,27.375-10.229,30.874-24.016h17.332v15.627l-14.972,104.8H326.835L311.865,319.487z M79.708,407.93h144.444v16.358H79.708
		V407.93z M496.336,439.951v8.352H15.664v-8.352H496.336z"/>
	<path style="fill:#1D1D1B;" d="M408.103,152.103h-32.195v-24.017h-111.73v24.017h-32.195v15.664h176.119L408.103,152.103
		L408.103,152.103z M279.842,143.75h80.401v8.353h-80.401V143.75z"/>
	<polygon style="fill:#1D1D1B;" points="327.875,63.697 368.076,63.697 368.076,48.033 312.211,48.033 312.211,119.908 
		327.875,119.908 	"/>
</g>
<rect x="272.01" y="400.267" style="fill:#FFFFFF;" width="24.016" height="15.664"/>
<g>
</g>
<g>
</g>
<g>
</g>
<g>
</g>
<g>
</g>
<g>
</g>
<g>
</g>
<g>
</g>
<g>
</g>
<g>
</g>
<g>
</g>
<g>
</g>
<g>
</g>
<g>
</g>
<g>
</g>
</svg>
