<?xml version="1.0" encoding="iso-8859-1"?>
<!-- Generator: Adobe Illustrator 19.0.0, SVG Export Plug-In . SVG Version: 6.00 Build 0)  -->
<svg version="1.1" id="Layer_1" xmlns="http://www.w3.org/2000/svg" xmlns:xlink="http://www.w3.org/1999/xlink" x="0px" y="0px"
	 viewBox="0 0 512 512" style="enable-background:new 0 0 512 512;" xml:space="preserve">
<rect x="143.938" y="35.887" style="fill:#8CC63F;" width="56.035" height="48.025"/>
<rect x="143.938" y="59.896" style="fill:#D9E021;" width="56.035" height="24.012"/>
<rect x="199.973" y="19.876" style="fill:#8CC63F;" width="304.162" height="80.044"/>
<path style="fill:#D9E021;" d="M377.247,63.336c-11.35-2.27-23.035-2.27-34.385,0l-5.636,1.127c-11.35,2.27-23.035,2.27-34.385,0
	l-5.636-1.127c-11.35-2.27-23.035-2.27-34.385,0l-5.636,1.127c-11.35,2.27-23.035,2.27-34.385,0l-22.828-4.566v40.021h304.16V59.897
	l0,0c-15.587,5.195-32.438,5.195-48.025,0l0,0"/>
<rect x="376.063" y="19.876" style="fill:#FFFFFF;" width="80.044" height="80.044"/>
<g>
	<path style="fill:#39B54A;" d="M207.975,324.035V215.979c0-6.631,5.376-12.007,12.007-12.007h8.004
		c6.631,0,12.007-5.376,12.007-12.007l0,0c0-6.631,5.376-12.007,12.007-12.007h24.013c6.631,0,12.007,5.376,12.007,12.007l0,0
		c0,6.631,5.376,12.007,12.007,12.007l0,0c11.052,0,20.011,8.959,20.011,20.011v100.053"/>
	<path style="fill:#39B54A;" d="M39.889,322.429l-22.725-22.725c-4.688-4.688-4.688-12.291,0-16.979l5.66-5.66
		c4.688-4.688,4.688-12.291,0-16.979l0,0c-4.688-4.688-4.688-12.291,0-16.979l16.979-16.979c4.688-4.688,12.291-4.688,16.979,0l0,0
		c4.688,4.688,12.291,4.688,16.979,0l0,0c7.814-7.814,20.484-7.814,28.299,0l13.865,13.865c0,0-35.316,57.651,20.011,84.044
		L39.889,322.429z"/>
	<path style="fill:#39B54A;" d="M480.116,322.429l22.725-22.725c4.688-4.688,4.688-12.291,0-16.979l-5.66-5.66
		c-4.688-4.688-4.688-12.291,0-16.979l0,0c4.688-4.688,4.688-12.291,0-16.979l-16.979-16.979c-4.688-4.688-12.291-4.688-16.979,0
		l0,0c-4.688,4.688-12.291,4.688-16.979,0l0,0c-7.814-7.814-20.484-7.814-28.299,0l-13.865,13.865c0,0,35.316,57.651-20.011,84.044
		L480.116,322.429z"/>
</g>
<g>
	
		<rect x="57.277" y="277.384" transform="matrix(-0.7071 -0.7071 0.7071 -0.7071 -82.3546 552.6714)" style="fill:#F15A24;" width="32.016" height="32.016"/>
	
		<rect x="254.62" y="277.374" transform="matrix(-0.7071 -0.7071 0.7071 -0.7071 254.5393 692.197)" style="fill:#F15A24;" width="32.016" height="32.016"/>
	
		<rect x="430.727" y="277.379" transform="matrix(-0.7071 -0.7071 0.7071 -0.7071 555.1675 816.7329)" style="fill:#F15A24;" width="32.016" height="32.016"/>
</g>
<path style="fill:#FF1D25;" d="M339.186,324.037c-16.273-9.804-27.157-27.645-27.157-48.027c0-30.944,25.086-56.03,56.03-56.03
	s56.03,25.086,56.03,56.03c0,20.382-10.884,38.223-27.157,48.027"/>
<circle style="fill:#FF4A51;" cx="368.057" cy="276.008" r="32.016"/>
<circle style="fill:#FF777C;" cx="368.057" cy="276.008" r="16.009"/>
<path id="SVGCleanerId_0" style="fill:#FF1D25;" d="M131.077,324.037c-16.273-9.804-27.157-27.645-27.157-48.027
	c0-30.944,25.086-56.03,56.03-56.03s56.03,25.086,56.03,56.03c0,20.382-10.884,38.223-27.157,48.027"/>
<g>
	<path id="SVGCleanerId_0_1_" style="fill:#FF1D25;" d="M131.077,324.037c-16.273-9.804-27.157-27.645-27.157-48.027
		c0-30.944,25.086-56.03,56.03-56.03s56.03,25.086,56.03,56.03c0,20.382-10.884,38.223-27.157,48.027"/>
</g>
<circle style="fill:#FF4A51;" cx="159.951" cy="276.008" r="32.016"/>
<path style="fill:#D4145A;" d="M336.042,492.124H175.958c-92.832,0-168.088-75.256-168.088-168.089l0,0h496.26l0,0
	C504.13,416.868,428.874,492.124,336.042,492.124z"/>
<path style="fill:#DD437B;" d="M456.105,325.018c0,92.342-75.256,166.845-168.088,166.845h48.025
	c92.832,0,168.088-74.503,168.088-166.845H456.105z"/>
<path style="fill:#9F0F44;" d="M55.895,325.018c0,95.49,75.256,166.845,168.088,166.845h-48.025
	c-92.832,0-168.088-71.355-168.088-166.845H55.895z"/>
<rect x="15.877" y="356.052" style="fill:#FFFFFF;" width="480.252" height="24.012"/>
<rect x="152.69" y="235.829" width="15.74" height="16.789"/>
<rect x="131.376" y="243.617" transform="matrix(-0.6428 -0.766 0.766 -0.6428 36.3314 519.9144)" width="16.008" height="15.74"/>
<rect x="120.404" y="262.579" transform="matrix(-0.9848 -0.1737 0.1737 -0.9848 207.8873 559.0912)" width="16.009" height="15.74"/>
<rect x="124.361" y="284.006" transform="matrix(-0.5 -0.866 0.866 -0.5 -54.5387 552.5326)" width="15.74" height="16.007"/>
<rect x="141.141" y="298.093" transform="matrix(-0.9397 -0.342 0.342 -0.9397 184.3511 644.6976)" width="15.74" height="16.008"/>
<rect x="162.892" y="298.222" transform="matrix(-0.342 -0.9397 0.9397 -0.342 -58.2927 571.367)" width="16.008" height="15.74"/>
<rect x="179.668" y="284.143" transform="matrix(-0.866 -0.5 0.5 -0.866 204.1888 638.7403)" width="16.007" height="15.74"/>
<rect x="183.61" y="262.458" transform="matrix(-0.1737 -0.9848 0.9848 -0.1737 -41.6109 506.0111)" width="15.74" height="16.009"/>
<rect x="172.649" y="243.465" transform="matrix(-0.766 -0.6428 0.6428 -0.766 157.151 560.1403)" width="15.74" height="16.008"/>
<rect x="359.41" y="235.829" width="15.74" height="16.789"/>
<rect x="339.492" y="243.599" transform="matrix(-0.6428 -0.766 0.766 -0.6428 378.2415 679.3064)" width="16.008" height="15.74"/>
<rect x="328.518" y="262.587" transform="matrix(-0.9848 -0.1737 0.1737 -0.9848 620.9507 595.2571)" width="16.009" height="15.74"/>
<rect x="332.471" y="284.01" transform="matrix(-0.5 -0.866 0.866 -0.5 257.6253 732.7664)" width="15.74" height="16.008"/>
<rect x="349.257" y="298.085" transform="matrix(-0.9397 -0.342 0.342 -0.9397 588.0375 715.8589)" width="15.74" height="16.008"/>
<rect x="370.993" y="298.222" transform="matrix(-0.342 -0.9397 0.9397 -0.342 220.9791 766.9182)" width="16.008" height="15.74"/>
<rect x="387.777" y="284.149" transform="matrix(-0.866 -0.5 0.5 -0.866 592.5229 742.8077)" width="16.008" height="15.74"/>
<rect x="391.714" y="262.453" transform="matrix(-0.1737 -0.9848 0.9848 -0.1737 202.6447 710.9456)" width="15.74" height="16.009"/>
<rect x="380.755" y="243.472" transform="matrix(-0.766 -0.6428 0.6428 -0.766 524.6664 693.9266)" width="15.74" height="16.008"/>
<rect x="47.751" y="244.223" width="15.74" height="15.74"/>
<rect x="455.949" y="244.223" width="15.74" height="15.74"/>
<rect x="255.525" y="220.088" width="16.789" height="15.74"/>
<rect x="232.44" y="252.618" width="15.74" height="15.74"/>
<g>
	<rect x="47.751" y="100.463" style="fill:#D9E021;" width="15.74" height="15.74"/>
	<rect x="63.496" y="123.549" style="fill:#D9E021;" width="15.74" height="32.53"/>
	<rect x="23.616" y="163.424" style="fill:#D9E021;" width="15.74" height="24.135"/>
	<rect x="87.631" y="180.213" style="fill:#D9E021;" width="15.74" height="15.74"/>
</g>
<path d="M493.506,316.166l10.897-10.896c7.749-7.749,7.749-20.359,0-28.11l-5.66-5.659c-0.782-0.782-1.211-1.82-1.211-2.924
	s0.43-2.144,1.211-2.926c7.75-7.749,7.75-20.359,0-28.11l-16.979-16.979c-3.755-3.755-8.745-5.822-14.055-5.822
	s-10.3,2.067-14.055,5.822c-1.613,1.613-4.237,1.613-5.85,0c-10.87-10.87-28.558-10.87-39.429,0l-3.366,3.366
	c-10.441-7.429-23.189-11.817-36.95-11.817c-15.202,0-29.174,5.344-40.155,14.243v-2.37c0-15.373-12.507-27.88-27.881-27.88
	c-2.28,0-4.135-1.856-4.135-4.137c0-10.96-8.916-19.877-19.877-19.877h-24.012c-10.96,0-19.877,8.916-19.877,19.877
	c0,2.28-1.856,4.137-4.137,4.137h-8.004c-10.959,0-19.876,8.916-19.876,19.876v10.375c-10.981-8.897-24.953-14.243-40.155-14.243
	c-16.824,0-32.139,6.546-43.562,17.211l-8.76-8.761c-5.267-5.267-12.267-8.166-19.715-8.166s-14.448,2.9-19.715,8.166
	c-1.612,1.614-4.236,1.614-5.85,0c-7.749-7.748-20.359-7.749-28.11,0l-16.979,16.979c-7.75,7.749-7.75,20.359,0,28.11
	c0.782,0.782,1.211,1.82,1.211,2.926c0,1.105-0.43,2.143-1.211,2.924l-5.66,5.66c-7.749,7.749-7.749,20.359,0,28.11l10.897,10.895H0
	v7.87c0,97.023,78.935,175.958,175.958,175.958h160.084c97.023,0,175.958-78.935,175.958-175.958v-7.87H493.506z M436.675,231.691
	c3.755,3.755,8.745,5.822,14.055,5.822s10.3-2.067,14.055-5.822c1.613-1.613,4.236-1.613,5.849,0l16.979,16.979
	c1.613,1.613,1.613,4.237,0,5.85c-3.755,3.755-5.822,8.745-5.822,14.055c0,5.309,2.067,10.3,5.822,14.055l5.66,5.659
	c1.613,1.613,1.613,4.237,0,5.85l-22.027,22.027h-13.524l22.774-22.774l-33.769-33.769l-14.809,14.809
	c-0.371-15.19-6.061-29.075-15.285-39.87l2.872-2.872C424.239,226.957,431.941,226.957,436.675,231.691z M435.732,316.166h-17.899
	c2.729-3.366,5.096-6.993,7.072-10.827L435.732,316.166z M435.218,293.392l11.509-11.509l11.509,11.509l-11.509,11.509
	L435.218,293.392z M368.059,227.85c12.85,0,24.533,5.069,33.177,13.3l1.682,1.682c8.231,8.644,13.3,20.327,13.3,33.177
	c0,6.054-1.121,11.895-3.195,17.317l-0.064,0.064l0.029,0.029c-3.535,9.182-9.863,17.121-18.37,22.743h-53.118
	c-13.555-8.959-21.601-23.807-21.601-40.155C319.899,249.455,341.504,227.85,368.059,227.85z M312.185,243.993h0.61
	c-0.205,0.352-0.411,0.702-0.61,1.059V243.993z M219.981,211.843h8.004c10.96,0,19.877-8.916,19.877-19.877
	c0-2.28,1.856-4.137,4.137-4.137h24.012c2.28,0,4.136,1.856,4.136,4.137c0,10.96,8.916,19.877,19.876,19.877
	c6.694,0,12.141,5.446,12.141,12.14v11.841h-16.767v15.74h13.634c-3.132,7.535-4.87,15.79-4.87,24.447
	c0,14.966,5.075,28.992,14.125,40.155h-36.654l22.774-22.774l-33.769-33.769l-33.769,33.769l22.774,22.774h-49.915
	c9.051-11.163,14.125-25.189,14.125-40.155c0-11.211-2.912-21.752-8.004-30.921v-9.266h7.146v-15.74h-7.146v-4.105
	C215.845,213.698,217.701,211.843,219.981,211.843z M270.636,304.901l-11.509-11.509l11.509-11.509l11.509,11.509L270.636,304.901z
	 M159.95,227.85c26.556,0,48.16,21.604,48.16,48.16c0,16.348-8.045,31.196-21.601,40.155H133.39
	c-13.555-8.959-21.601-23.807-21.601-40.155C111.791,249.455,133.394,227.85,159.95,227.85z M100.597,299.84
	c2.352,5.891,5.575,11.387,9.577,16.325H84.273L100.597,299.84z M73.278,304.901l-11.509-11.509l11.509-11.509l11.509,11.509
	L73.278,304.901z M22.729,294.139c-1.613-1.613-1.613-4.237,0-5.849l5.66-5.66c3.755-3.755,5.822-8.745,5.822-14.055
	s-2.067-10.3-5.822-14.055c-1.613-1.613-1.613-4.237,0-5.85l16.979-16.979c1.613-1.612,4.237-1.613,5.85,0
	c3.755,3.755,8.745,5.822,14.055,5.822s10.3-2.067,14.055-5.822c2.294-2.293,5.342-3.556,8.585-3.556s6.292,1.263,8.585,3.556
	l9.753,9.753c-6.442,9.973-10.2,21.836-10.2,34.566c0,2.27,0.122,4.517,0.352,6.737l-23.124-23.124l-33.77,33.769l22.774,22.775
	H44.755L22.729,294.139z M496.069,331.906c-0.265,5.475-0.813,10.879-1.618,16.198H17.549c-0.805-5.319-1.353-10.722-1.618-16.198
	H496.069z M20.754,363.844h470.492c-0.726,2.829-1.529,5.628-2.404,8.395H23.158C22.283,369.472,21.48,366.673,20.754,363.844z
	 M336.042,484.254H175.958c-65.629,0-122.167-39.661-146.904-96.275h453.892C458.21,444.592,401.671,484.254,336.042,484.254z"/>
<circle style="fill:#FF777C;" cx="159.951" cy="276.008" r="16.009"/>
<path d="M192.101,12.006v95.782H512V12.006H192.101z M496.26,54.165c-12.765,3.396-25.102,1.549-31.92-0.068V27.746h31.92V54.165z
	 M408.725,67.93v24.118H384.59V27.746h64.01v64.302h-24.135V67.93H408.725z M368.85,27.746v26.43
	c-9.179-0.855-18.402-0.383-27.531,1.443l-5.636,1.127c-10.384,2.078-20.914,2.077-31.299,0l-5.636-1.127
	c-12.432-2.486-25.039-2.486-37.471,0l-5.636,1.127c-10.384,2.078-20.914,2.077-31.299,0l-16.502-3.3V27.746H368.85z
	 M207.841,69.497l13.415,2.683c12.433,2.486,25.04,2.486,37.471,0l5.636-1.127c10.384-2.077,20.914-2.077,31.299,0l5.636,1.127
	c6.216,1.243,12.477,1.865,18.736,1.865c6.259,0,12.52-0.621,18.735-1.865l5.636-1.127c8.106-1.621,16.299-1.959,24.444-1.049
	v22.044H207.841V69.497z M464.34,92.048V70.213c4.567,0.886,10.284,1.625,16.661,1.625c4.785,0,9.944-0.429,15.258-1.511v21.72
	H464.34z"/>
<polygon points="151.636,19.66 135.896,19.66 135.896,52.19 76.697,52.19 58.044,70.443 69.054,81.693 83.117,67.93 135.896,67.93 
	135.896,100.459 151.636,100.459 151.636,92.065 183.116,92.065 183.116,76.324 151.636,76.324 151.636,43.795 183.116,43.795 
	183.116,28.055 151.636,28.055 "/>
<g>
</g>
<g>
</g>
<g>
</g>
<g>
</g>
<g>
</g>
<g>
</g>
<g>
</g>
<g>
</g>
<g>
</g>
<g>
</g>
<g>
</g>
<g>
</g>
<g>
</g>
<g>
</g>
<g>
</g>
</svg>
